mtllib materials.mtl
v 0.7657391 -1.169807 0.09699857
v 0.7541899 1.173796 0.03563726
v 0.7659678 1.173553 0.02415264
v 0.7678194 0.7978132 0.03399044
v 0.7679446 0.772392 0.03465605
v 0.7714813 0.05472302 0.05344641
v 0.771896 -0.02942288 0.05564952
v 0.777517 -1.17005 0.08551395
v 0.3776672 -1.186204 -0.2923969
v 0.3937965 -1.182238 -0.3077482
v 0.3840616 0.2792711 -0.328581
v 0.3780072 0.280568 -0.3228756
v 0.3891992 1.158095 -0.3232166
v 0.3936673 1.157839 -0.3354681
v 0.6777345 0.09929693 -0.0436362
v 0.6107262 0.1908979 -0.114291
v 0.4043341 -1.181885 -0.2962812
v 0.3952346 -1.181595 -0.2723378
v 0.3782105 1.157726 -0.3411025
v 0.6110764 0.1931146 -0.1139787
v 0.5096391 0.2685859 -0.2129018
v 0.3937156 0.2811768 -0.3250836
v 0.3937156 0.2792308 -0.3250606
v 0.7066059 0.7978013 -0.02878606
v 0.3936873 0.7935848 -0.3311533
v 0.7065071 0.7971764 -0.02887416
v 0.3936874 0.79216 -0.3311365
v 0.3806427 0.7925663 -0.3358975
v 0.7027181 0.7731936 -0.03225303
v 0.7025592 0.7721877 -0.03239477
v 0.3936886 0.7675002 -0.3308445
v 0.3936887 0.7661626 -0.3308285
v 0.3808053 0.7681506 -0.3355495
v 0.3937115 0.3548381 -0.3259561
v 0.3936674 1.15784 -0.3354683
v 0.3782106 1.157727 -0.3411028
v 0.3781273 0.797873 -0.3336253
v 0.3781207 0.7690713 -0.3330269
v 0.3780478 0.4541669 -0.3264835
v 0.3780063 0.2754351 -0.3227695
v 0.3776678 -1.186202 -0.2923978
v 0.2127845 -1.175771 0.2077479
v 0.1973277 -1.175885 0.2021134
v 0.1973499 -1.079742 0.2001156
v 0.1974926 -0.4636898 0.1873145
v 0.1975636 -0.1569761 0.1809412
v 0.1975913 -0.03745484 0.1784576
v 0.1977427 0.6159284 0.1648808
v 0.1977673 0.7222941 0.1626706
v 0.1977715 0.7407286 0.1622876
v 0.1977783 0.7702122 0.161675
v 0.1978704 1.168044 0.1534084
v 0.2133273 1.168157 0.159043
v 0.2182397 1.167876 0.1455728
v 0.3891994 1.158096 -0.3232169
v 0.3295864 0.1594019 -0.1876038
v 0.2903014 -0.2087243 -0.07241976
v 0.2361781 -0.7158958 0.08627057
v 0.2357509 -0.7198987 0.08752304
v 0.2549309 -0.8579655 0.03768849
v 0.2789251 -1.030687 -0.02465439
v 0.3440113 -1.184277 -0.2001084
v 0.2999111 -1.181754 -0.07918113
v 0.2609477 -1.179524 0.02766037
v 0.2289533 -1.177694 0.1153923
v 0.2035022 -1.176238 0.1851819
v 0.2178736 -1.176093 0.1923107
v 0.374207 -1.185983 -0.2819002
v 0.4043346 -1.181884 -0.2962821
v 0.3952352 -1.181594 -0.2723387
v 0.202448 1.167782 0.1408565
v 0.2855038 0.7545161 -0.07866198
v 0.3658515 0.7671432 -0.2993305
v 0.2621735 0.1384879 -0.002251983
v 0.2278109 -0.3803991 0.1024659
v 0.248271 -0.3241906 0.04520619
v 0.2294493 -0.4460965 0.09929454
v 0.25823 -1.034282 0.03218997
v 0.2942014 0.3326901 -0.09402454
v 0.290582 0.5082297 -0.08763152
v 0.2406047 0.6234956 0.04714704
v 0.1978697 1.168045 0.1534088
v 0.2024474 1.167783 0.140857
v 0.2050424 0.7734823 0.1495129
v 0.2052483 0.7421968 0.1501997
v 0.2060858 0.6149371 0.1529933
v 0.2101204 0.001852751 0.1664522
v 0.211691 -0.2367895 0.1716911
v 0.2178725 -1.176093 0.1923113
v -0.1417864 -1.184285 -0.2047194
v -0.1292109 -1.18462 -0.2153221
v -0.1354788 -0.5232109 -0.226373
v -0.1444925 -0.5307401 -0.2185814
v -0.1407716 -0.72389 -0.2131255
v -0.1327145 -1.121456 -0.1951541
v -0.1298434 1.171587 -0.2600447
v -0.1297965 0.9972482 -0.2567356
v -0.02326512 0.8894751 -0.1262197
v 0.09830904 0.766484 0.02272546
v 0.09926134 0.7665501 0.02387297
v 0.1463391 0.7698147 0.08060032
v 0.2127834 -1.175771 0.2077484
v 0.203501 -1.176237 0.1851825
v 0.1973265 -1.175885 0.2021139
v -0.1193409 -1.184371 -0.2034411
v -0.1326634 -1.18406 -0.1937745
v 0.1398348 0.7661169 0.09221768
v 0.1216202 -0.3424034 0.06737769
v 0.03205907 -0.4474199 -0.03634554
v -0.03663087 -0.5279635 -0.1158973
v -0.1365927 1.172036 -0.2477425
v -0.1515424 1.17185 -0.2546944
v -0.1444957 -0.5299845 -0.2185975
v -0.1445017 -0.528521 -0.2186285
v -0.1445059 -0.5275168 -0.2186498
v -0.1446535 -0.4918655 -0.219406
v -0.1402037 -0.4662037 -0.2178305
v -0.1490628 0.9102087 -0.2503228
v -0.1297734 0.911248 -0.2551032
v 0.1462538 0.7692091 0.08050865
v -0.1375269 0.7482076 -0.240004
v -0.137508 0.7567415 -0.2401598
v 0.1419854 0.738934 0.07592469
v -0.1297303 0.75067 -0.2520553
v -0.12973 0.7496362 -0.2520357
v -0.1297227 0.7223957 -0.2515187
v 0.1081848 0.7368765 0.03519058
v -0.1297219 0.7192264 -0.2514585
v -0.1294269 -0.3797443 -0.2305993
v -0.0601244 -0.4272357 -0.146116
v -0.02575058 -0.4507912 -0.1042126
v 0.1340217 0.6824481 0.06737214
v 0.1344703 0.6856303 0.06785393
v 0.108505 0.736896 0.03557646
v -0.1475456 0.7501066 -0.2476478
v -0.1475339 0.7488728 -0.2476271
v -0.1472569 0.7196453 -0.2471388
v -0.1472251 0.7163002 -0.2470829
v -0.135577 -0.512847 -0.2265462
v -0.1293914 -0.5122931 -0.2280834
v -0.1294051 -0.4608927 -0.229059
v -0.1480163 0.7195647 -0.246496
v -0.1497855 0.7475948 -0.2456957
v -0.1497905 0.7488074 -0.2457214
v -0.1504468 0.9073164 -0.2490834
v -0.1504503 0.9081786 -0.2491017
v -0.1490374 0.9075394 -0.2502782
v -0.1496688 0.7193892 -0.2450975
v -0.1496569 0.7165055 -0.2450363
v -0.02687329 -0.4587544 -0.1054183
v -0.1018714 -0.4475167 -0.1960956
v -0.129391 -0.5137625 -0.2280555
v -0.1293906 -0.5149843 -0.2280324
v -0.1354961 -0.5213839 -0.2264035
v -0.135489 -0.5221327 -0.226391
v -0.1490438 0.9082179 -0.2502896
v -0.3931872 1.182703 0.2173702
v -0.3749809 1.182524 0.2180117
v -0.3997477 -1.161229 0.2688608
v -0.1193392 -1.184372 -0.2034412
v -0.122369 -0.5047029 -0.2197706
v -0.1285319 -0.5117297 -0.2180727
v -0.3744051 1.182161 0.2015736
v -0.1365911 1.172036 -0.2477421
v -0.1298417 1.171587 -0.2600442
v -0.1603804 0.9076395 -0.200201
v -0.3919801 1.182334 0.2009542
v -0.1326617 -1.18406 -0.1937745
v -0.1417847 -1.184286 -0.2047195
v -0.1515411 1.17185 -0.2546941
v -0.149082 0.9123662 -0.2503589
v -0.1490662 0.9107022 -0.250331
v -0.1479864 0.911751 -0.2490366
v -0.1292092 -1.18462 -0.2153224
v -0.1355819 -0.5121619 -0.2265578
v -0.1445667 -0.5124235 -0.2189701
v -0.1444984 -0.5288991 -0.2186206
v -0.3991717 -1.161593 0.2524226
v -0.414323 -1.161445 0.2518885
v -0.3652738 -1.165556 0.1697122
v -0.3465723 -1.108715 0.1367354
v -0.1907095 -0.6349891 -0.1381025
v -0.1667771 -0.5622493 -0.1803034
v -0.3833523 -0.8864502 0.1921844
v -0.130152 0.912313 -0.2527503
v -0.2333628 -1.176611 -0.05129015
v -0.2873971 -1.172083 0.03923857
v -0.4048988 -0.1728396 0.2304044
v -0.4006281 0.2751551 0.2206687
v -0.3967465 0.6823397 0.2118199
v -0.3964864 0.7096293 0.2112268
v -0.3949934 0.8662364 0.2078235
v -0.1814526 0.90626 -0.1970319
v -0.1497896 0.7488813 -0.2457229
v -0.1504567 0.9099677 -0.2491397
v -0.18689 0.85798 -0.1865497
v -0.1873237 0.8541288 -0.1857136
v -0.2003464 0.7384975 -0.1606088
v -0.2780858 0.4884294 -0.01235873
v -0.2362499 0.7065835 -0.0924468
v -0.2559494 0.7036076 -0.05510062
v -0.1496634 0.7184052 -0.2450766
v -0.1497867 0.7481649 -0.2457078
v -0.2033816 0.7115479 -0.1547577
v -0.2034637 0.7108192 -0.1545997
v -0.2560742 0.7302957 -0.05496192
v -0.235664 0.7066722 -0.09355754
v -0.226589 0.7346351 -0.110859
v -0.2307174 0.7340276 -0.1030325
v -0.1475297 0.7485743 -0.2476221
v -0.150466 0.9122326 -0.2491878
v -0.1355879 -0.5115273 -0.2265684
v -0.1285411 -0.5110659 -0.2180871
v -0.3668411 -0.7398433 0.1603545
v -0.2166826 -0.8322434 -0.08897167
v -0.1998867 -0.7515256 -0.1194238
v -1.992871 -1.14597 0.1962563
v -1.9782 0.2426796 0.1661282
v -1.977751 0.2850507 0.1652089
v -1.977518 0.3070431 0.1647317
v -1.97674 0.3806925 0.1631339
v -1.975831 0.4666971 0.1612679
v -1.974091 0.6313033 0.1576967
v -1.969359 1.079121 0.1479807
v -1.968529 1.157675 0.1462764
v -1.968105 1.197784 0.1454065
v -1.968681 1.198147 0.1618446
v -1.993447 -1.145607 0.2126944
v -0.3991721 -1.161592 0.2524235
v -0.399748 -1.161229 0.2688615
v -0.3749809 1.182523 0.2180119
v -0.374405 1.182161 0.2015737
v -0.3839587 0.2780627 0.2211889
v -0.3855642 0.1261168 0.2244855
v -0.3896818 -0.2635412 0.2329395
v -0.3949515 -0.7622172 0.2437588
v -1.249444 -1.153257 0.2224576
v -1.175146 -0.5388704 0.2115028
v -1.13825 -0.2337688 0.2060626
v -1.169637 -0.08796525 0.2017457
v -1.21897 0.01331508 0.1977829
v -1.3375 0.1108736 0.1914784
v -1.550813 0.2132736 0.1817471
v -1.661073 0.2485546 0.1771065
v -1.859657 0.2614751 0.1698656
v -0.3931872 1.182702 0.2173703
v -0.4143234 -1.161444 0.2518895
v -0.5969266 -1.159654 0.2454543
v -0.7445304 -1.158207 0.2402524
v -0.7920606 -1.157741 0.238577
v -0.8172911 -1.157494 0.2376881
v -0.8406276 -1.157265 0.2368659
v -0.9662256 -1.156034 0.2324392
v -0.9698586 -1.155998 0.2323114
v -1.162751 -1.154107 0.2255129
v -1.716321 1.195316 0.1542797
v -1.595663 1.194133 0.1585319
v -1.508993 1.193283 0.1615866
v -1.409707 1.19231 0.165086
v -1.39246 1.192141 0.1656936
v -0.7104415 1.185455 0.1897304
v -0.530583 1.183692 0.1960691
v -0.3919799 1.182333 0.2009543
v -0.7072434 0.8215632 0.1978718
v -0.7657307 0.7016726 0.1984688
v -0.7887379 0.5003593 0.2021052
v -0.6994929 0.400913 0.2074257
v -0.5303676 0.3105868 0.215343
v -1.790293 0.5904732 0.1650355
v -1.711139 0.8653958 0.161741
v -1.69222 0.9311063 0.1609538
v -1.697942 0.9341631 0.160686
v -1.466944 1.110791 0.1648794
v -1.453677 1.084762 0.1659184
v -1.369566 0.9973013 0.1707944
v -1.310588 0.9359741 0.1742134
v -1.089963 0.7065625 0.1870036
v -1.063663 0.8067098 0.1857151
v -1.08931 0.8352888 0.1841863
v -1.145582 0.8979938 0.1808318
v -0.8209456 0.9866433 0.1902463
v -0.7319479 0.9972727 0.1931292
v -0.9264346 0.3985713 0.1995283
v -0.7133629 0.3512384 0.2080362
v -0.8723193 0.4932158 0.1993352
v -0.7362373 0.9597409 0.1938072
v -0.7366276 0.9563255 0.1938689
v -0.9039711 0.9635482 0.1878477
v -0.8200444 0.9863193 0.190285
v -1.013295 0.8878927 0.1856879
v -1.060453 0.803133 0.1859065
v -1.112328 0.6213992 0.1880999
v -1.095395 0.6858778 0.1872699
v -1.198061 0.6671872 0.1840864
v -1.169994 0.6722968 0.1849567
v -1.641257 0.9587464 0.1621289
v -1.644955 0.9609947 0.1619499
v -1.45007 0.932209 0.1694109
v -1.414596 0.9269693 0.1707692
v -1.276399 0.7369733 0.1798024
v -1.328763 0.8397021 0.1757013
v -1.338954 0.8596952 0.1749033
v -1.395834 0.9102826 0.1717945
v -1.461956 0.8081279 0.1717328
v -1.265996 0.7034698 0.1809062
v -1.26031 0.7271934 0.1805817
v -1.654307 0.5602646 0.1704651
v -1.701201 0.8120363 0.1632665
v -1.579649 0.5436795 0.1734459
v -1.534562 0.5788314 0.1742494
v -1.682649 0.7860734 0.1644892
v -1.496196 0.525141 0.1767782
v -1.422409 0.5087495 0.1797243
v -1.457735 0.6730223 0.1748617
v -1.533374 0.5771699 0.1743277
v -1.531804 0.7931263 0.1696171
v -1.480356 0.7654698 0.1720294
v -1.42288 0.7345729 0.1747245
v -1.621286 0.7739079 0.1669068
v -1.473112 0.7445316 0.1727451
v -1.577524 0.5432074 0.1735307
v -1.780406 0.4923686 0.1675462
v -1.66525 0.5074956 0.1712459
v -1.825097 0.4424242 0.1670829
v -1.342034 0.8657374 0.174662
v -1.671956 0.2723157 0.176201
v -1.58377 0.2622933 0.1795111
v -1.531157 0.2563138 0.1814859
v -1.336636 0.2342063 0.1887872
v -1.283022 0.1298544 0.1929678
v -1.276312 0.1268995 0.1932681
v -1.108969 0.05320752 0.2007557
v -1.11662 -0.03964186 0.2025365
v -0.7955959 -1.146618 0.2382082
v -0.7940691 -1.151422 0.2383674
v -1.086094 -0.9063619 0.2227315
v -1.133417 -0.8047275 0.2188311
v -0.9094663 -1.095518 0.2330923
v -0.9959301 -1.01796 0.2283522
v -0.8304883 -1.135499 0.2367409
v -0.8391637 -1.009532 0.2336569
v -1.085528 -0.2343477 0.207922
v -1.087411 -0.2567735 0.2083509
v -1.100286 -0.4101244 0.211284
v -1.107699 -0.4984204 0.2129726
v -1.048988 -0.771328 0.2210513
v -0.94424 -0.9459108 0.2285728
v -1.161778 0.005572677 0.199957
v -1.14485 -0.04769146 0.2017252
v -0.8321234 -1.031684 0.2343924
v -1.830684 0.2903552 0.1702431
v -1.741463 0.2802151 0.1735921
v -1.533762 0.2402713 0.1817486
v -1.283928 0.1278764 0.1929797
v -1.288165 0.1321192 0.1927377
v -1.483445 0.2181133 0.184
v -1.201966 0.04581141 0.1976614
v -1.270835 0.1147666 0.1937276
v -1.132869 -0.7981958 0.218706
v -0.9967204 -1.014286 0.2282434
v -0.8313388 -1.134081 0.2366797
v -1.334301 0.8852274 0.1745025
v -1.338631 0.9208226 0.1735654
v -1.328405 0.8955412 0.1744814
vn 0.6982 0.02217573 0.7155592
vn -0.6874191 -0.01492882 -0.7261077
vn -0.01655162 0.9995012 -0.02689733
vn 0.7158869 -0.01474902 -0.6980605
vn 0.00492606 -0.9996453 0.02617302
vn -0.01094473 0.999417 -0.03234057
vn 0.1702565 -0.9824158 0.07662848
vn 0.1444499 -0.9841877 -0.102513
vn 0.014295 -0.9997436 0.01756673
vn -0.7061409 0.01357335 0.7079412
vn -0.753632 0.01234701 0.6571806
vn 0.0002320407 0.999784 -0.02078337
vn -0.7013381 0.01520323 0.7126667
vn 0.6949131 -0.008479252 -0.7190437
vn 0.3425236 -0.01110956 -0.9394436
vn -0.8520905 0.01107098 0.5232776
vn 0.6949127 -0.008479212 -0.7190442
vn 0.7158872 -0.01474932 -0.6980602
vn 0.3425351 -0.01110926 -0.9394394
vn 0.7158868 -0.01475136 -0.6980606
vn 0.6949129 -0.008482045 -0.719044
vn 0.3425304 -0.01110725 -0.9394411
vn 0.7158867 -0.01474923 -0.6980608
vn 0.694913 -0.008479225 -0.7190439
vn 0.6949131 -0.008479169 -0.7190438
vn 0.3425307 -0.01110941 -0.939441
vn -0.6874321 -0.01492852 -0.7260953
vn 0.7158867 -0.01474906 -0.6980608
vn 0.34255 -0.01959709 -0.9392952
vn -0.3425515 0.01959708 0.9392947
vn 0.939501 0.006898894 0.3424767
vn -0.9395009 -0.006898801 -0.342477
vn -0.0002545563 -0.9997843 0.0207674
vn 0.0002275381 0.9997844 -0.02076385
vn -0.1413876 -0.01722203 -0.9898045
vn 0.9347645 0.01020938 0.3551213
vn 0.1702366 -0.9824206 0.07661075
vn 0.170236 -0.98242 0.07661982
vn -0.0002345723 -0.9997846 0.02075367
vn 0.0002314918 0.9997842 -0.02077469
vn 0.0002334024 0.9997841 -0.02078068
vn 0.0002379987 0.9997842 -0.02077192
vn -0.939501 -0.006898804 -0.3424768
vn -0.9395009 -0.006900585 -0.3424769
vn -0.939501 -0.006898824 -0.3424768
vn -0.939501 -0.006898717 -0.3424766
vn -0.9395011 -0.006898822 -0.3424764
vn -0.9395009 -0.00689887 -0.3424769
vn -0.9395012 -0.006898626 -0.3424763
vn -0.9395013 -0.006898616 -0.3424759
vn -0.9395009 -0.006899049 -0.3424769
vn -0.9395008 -0.006898884 -0.3424773
vn -0.9395009 -0.006899039 -0.3424771
vn -0.939501 -0.00689876 -0.3424767
vn -0.939501 -0.006898786 -0.3424765
vn -0.939501 -0.006899108 -0.3424768
vn -0.9395008 -0.006898791 -0.3424772
vn -0.9395009 -0.00689874 -0.3424769
vn 0.9394716 0.01369822 0.3423528
vn -0.6447713 -0.01887768 -0.7641425
vn -0.7679271 0.01338532 0.6403975
vn 0.7698029 -0.01190618 -0.6381707
vn -0.0002372384 -0.9997845 0.02076143
vn -0.002663523 -0.999732 0.02299897
vn 0.9497221 0.01329543 0.3128121
vn -0.3425465 0.01959727 0.9392965
vn -0.7682093 0.01347791 0.6400569
vn -0.0006078986 -0.9997702 0.02142952
vn 0.7614534 -0.009217541 -0.6481541
vn -0.005248616 -0.9996703 0.02513683
vn 0.02541982 0.9996098 -0.01158289
vn 0.003605301 0.9994003 -0.03443967
vn -0.4217761 0.01748167 0.9065315
vn -0.2395708 -0.01848925 -0.9707028
vn 0.03353317 0.9992752 -0.01801676
vn 0.7614534 -0.009217477 -0.6481541
vn -0.7679273 0.01338528 0.6403973
vn 0.7614532 -0.00921622 -0.6481544
vn 0.7698028 -0.01190602 -0.6381708
vn 0.7698029 -0.01190634 -0.6381707
vn -0.239573 -0.0184903 -0.9707023
vn -0.2395759 -0.01848893 -0.9707016
vn -0.6958936 -0.01455611 -0.7179974
vn -0.4217734 0.01748157 0.9065328
vn -0.6447845 -0.01887777 -0.7641313
vn -0.6447501 -0.01887639 -0.7641603
vn -0.644739 -0.01888297 -0.7641696
vn 0.7614535 -0.00921778 -0.6481541
vn 0.7614533 -0.009217627 -0.6481543
vn 0.7614533 -0.009217412 -0.6481543
vn 0.7698033 -0.01190546 -0.6381702
vn 0.7698029 -0.01190627 -0.6381706
vn 0.7698029 -0.01190619 -0.6381707
vn 0.7614534 -0.009217166 -0.6481542
vn 0.769803 -0.01190639 -0.6381705
vn 0.7698027 -0.01190635 -0.6381709
vn 0.7698032 -0.01190634 -0.6381704
vn -0.2395765 -0.01849395 -0.9707013
vn -0.2395683 -0.01848883 -0.9707035
vn -0.6447661 -0.01888002 -0.7641468
vn -0.4217764 0.01748168 0.9065314
vn -0.2396004 -0.01846456 -0.970696
vn -0.6447631 -0.01886276 -0.7641497
vn -0.2395808 -0.01848892 -0.9707004
vn -0.6447611 -0.01887778 -0.764151
vn -0.6447726 -0.01887679 -0.7641414
vn -0.6447808 -0.01884958 -0.7641351
vn -0.7679272 0.01338537 0.6403974
vn 0.7698031 -0.0119054 -0.6381704
vn -0.644796 -0.01881437 -0.7641232
vn -0.6448144 -0.01887812 -0.764106
vn -0.03499099 0.02204675 0.9991444
vn -0.2395896 -0.02438626 -0.9705679
vn 0.8836781 0.003970706 0.4680783
vn 0.0105844 0.9997084 -0.02170959
vn -0.005242145 -0.9996738 0.02499632
vn 0.7692781 -0.003384055 -0.6389051
vn -0.6447759 -0.01887751 -0.7641386
vn -0.00525927 -0.9996666 0.02527896
vn -0.02074997 -0.9990657 0.03791228
vn -0.8589018 -0.01441519 -0.5119374
vn 0.5874701 0.02205406 0.8089453
vn 0.8662434 0.01301356 0.4994529
vn -0.05018935 -0.9985334 0.02030176
vn -0.7586465 0.01643082 0.6512954
vn -0.0105318 -0.9997085 0.02172577
vn -0.01122907 -0.9990003 0.04327156
vn 0.003619452 0.9994 -0.03444782
vn -0.001370854 0.9997177 -0.02372487
vn 0.9993315 -0.009795903 0.03522393
vn 0.01060245 0.9997084 -0.02169466
vn -0.9972632 0.007909347 -0.07350925
vn 0.0104211 0.9998009 -0.01701488
vn -0.8844334 -0.001709559 -0.4666633
vn -0.8589022 -0.01441534 -0.5119368
vn -0.8844336 -0.001710006 -0.466663
vn -0.8589028 -0.01441143 -0.5119359
vn -0.8844333 -0.001712241 -0.4666635
vn -0.884434 -0.001708266 -0.4666621
vn -0.6447621 -0.01887825 -0.7641501
vn -0.6447637 -0.01887769 -0.7641488
vn 0.7692377 -0.003385794 -0.6389538
vn -0.8589022 -0.01441458 -0.5119368
vn -0.8844327 -0.00171117 -0.4666646
vn -0.8844334 -0.001710268 -0.4666635
vn -0.8844334 -0.001710218 -0.4666632
vn -0.8589022 -0.014415 -0.5119368
vn -0.2395902 -0.02438627 -0.9705678
vn -0.8589017 -0.01441613 -0.5119375
vn -0.858902 -0.0144146 -0.5119371
vn -0.8589028 -0.01441462 -0.5119357
vn -0.8589029 -0.01441416 -0.5119355
vn -0.8589013 -0.0144162 -0.5119384
vn -0.8844326 -0.001708864 -0.4666648
vn 0.7692399 -0.003385557 -0.6389512
vn -0.8844333 -0.001710238 -0.4666634
vn -0.644772 -0.01887644 -0.7641418
vn 0.8662435 0.01301366 0.4994525
vn -0.9993333 0.00979668 -0.0351718
vn 0.9993311 -0.009795731 0.03523615
vn 0.03499737 -0.02204726 -0.9991442
vn -0.03499699 0.02204694 0.9991442
vn -0.01056536 -0.9997083 0.02172078
vn 0.01056471 0.9997089 -0.02169157
vn -0.01051867 -0.9997094 0.02169115
vn 0.01057372 0.9997087 -0.02169989
vn 0.03499816 -0.0220473 -0.9991442
vn 0.03499534 -0.02204742 -0.9991443
vn 0.035001 -0.02204234 -0.9991442
vn 0.03499731 -0.02204457 -0.9991443
vn 0.03499689 -0.0220486 -0.9991442
vn 0.03499767 -0.02204615 -0.9991442
vn 0.03499654 -0.02204741 -0.9991442
vn 0.03499553 -0.0220476 -0.9991443
vn 0.03499955 -0.02204676 -0.9991441
vn 0.03499425 -0.02204531 -0.9991444
vn 0.03499426 -0.02204548 -0.9991444
vn 0.03499774 -0.02204802 -0.9991442
vn 0.03499746 -0.02204856 -0.9991442
vn 0.03499625 -0.02205181 -0.9991441
vn 0.03499562 -0.0220472 -0.9991443
vn 0.03499939 -0.02204216 -0.9991443
vn 0.03499617 -0.02204552 -0.9991443
vn 0.03499581 -0.02204893 -0.9991442
vn 0.03499664 -0.02204754 -0.9991442
vn 0.03499513 -0.02204882 -0.9991443
vn 0.03499401 -0.02204954 -0.9991443
vn 0.03499545 -0.02205055 -0.9991442
vn 0.03499928 -0.02204396 -0.9991442
vn 0.03499686 -0.02204509 -0.9991443
vn 0.03499711 -0.02204597 -0.9991443
vn 0.03500003 -0.02204477 -0.9991441
vn 0.03499771 -0.0220483 -0.9991441
vn 0.03499556 -0.02204938 -0.9991442
vn 0.03499851 -0.02204857 -0.9991441
vn 0.03499597 -0.0220443 -0.9991443
vn 0.03499484 -0.02204722 -0.9991443
vn 0.03499736 -0.02204922 -0.9991441
vn 0.03499518 -0.02204732 -0.9991443
vn 0.03499705 -0.02204716 -0.9991442
vn 0.03499695 -0.02204732 -0.9991442
vn 0.03499707 -0.02204696 -0.9991442
vn 0.03500339 -0.02200487 -0.9991449
vn 0.03499954 -0.02204617 -0.9991441
vn 0.0350007 -0.02204216 -0.9991442
vn 0.03498993 -0.02202587 -0.9991449
vn 0.03499516 -0.02204816 -0.9991443
vn 0.03499649 -0.02204738 -0.9991443
vn 0.0349966 -0.02205038 -0.9991441
vn 0.03499715 -0.02204824 -0.9991442
vn 0.03499694 -0.02204759 -0.9991442
vn 0.03499715 -0.02204592 -0.9991443
vn 0.03499777 -0.02204532 -0.9991443
vn 0.03499771 -0.02204618 -0.9991442
vn 0.03499706 -0.02204642 -0.9991443
vn 0.03499711 -0.02204729 -0.9991442
vn 0.03499711 -0.02204707 -0.9991442
vn 0.03500432 -0.02204115 -0.9991441
vn 0.03499629 -0.0220479 -0.9991442
vn 0.03499592 -0.02204816 -0.9991443
vn 0.03499823 -0.02204573 -0.9991442
vn 0.03499729 -0.0220471 -0.9991442
vn 0.03499719 -0.02204738 -0.9991442
vn 0.0349942 -0.02204747 -0.9991443
vn 0.03499735 -0.02204817 -0.9991442
vn 0.03499454 -0.02204371 -0.9991444
vn 0.03499641 -0.02204845 -0.9991442
vn 0.03499331 -0.02204943 -0.9991443
vn 0.03499544 -0.02204723 -0.9991443
vn 0.03499149 -0.02204951 -0.9991444
vn 0.03499726 -0.02204883 -0.9991442
vn 0.03499054 -0.02205202 -0.9991443
vn 0.03499869 -0.02204496 -0.9991442
vn 0.03497308 -0.02205661 -0.9991449
vn 0.03500164 -0.0220383 -0.9991443
vt 0.0535962 -0.03689233
vt 0.261048 0.07232073
vt 0.2602816 0.07377653
vt 0.2270217 0.05626686
vt 0.2247715 0.05508221
vt 0.1612446 0.02163849
vt 0.1537962 0.01771725
vt 0.05282978 -0.03543653
vt -0.05346961 -0.03717454
vt -0.05281492 -0.03500962
vt -0.1828071 0.03182889
vt -0.1832995 0.03114591
vt -0.09875245 -0.01448967
vt -0.05298351 -0.0374595
vt -0.05196773 -0.03664129
vt -0.001135707 0.03965783
vt 0.03971834 0.07641918
vt -0.0366043 0.1612389
vt -0.05537216 0.162073
vt -0.06872796 0.1626665
vt 0.09754176 -0.01754265
vt 0.09683742 -0.01605582
vt 0.04716975 -0.03958393
vt 0.04859685 -0.03895947
vt -0.09966144 -0.01619992
vt -0.05291143 -0.03842469
vt -0.09895164 -0.0147157
vt 0.05258905 -0.03534418
vt 0.05504602 -0.03421036
vt 0.05301566 -0.03264851
vt 0.04353081 -0.03463114
vt 0.04440763 -0.03671601
vt 0.04497462 -0.03404635
vt 0.05031423 -0.04036096
vt 0.09734451 -0.01741818
vt 0.0483487 -0.03871828
vt 0.1588852 0.213167
vt -0.03786438 0.07654879
vt 0.0004601095 0.04091942
vt 0.1388318 0.2272575
vt -0.005847423 0.04331283
vt -0.004000516 0.04133516
vt -0.04980159 -0.04140315
vt -0.04775135 -0.04185535
vt -0.04879015 -0.04057957
vt -0.03721667 0.0764163
vt 0.1602721 0.2119637
vt 0.1232469 0.2473408
vt -0.00404798 0.03871454
vt -0.0760913 0.1591704
vt -0.07620761 0.1593648
vt -0.09172973 0.155269
vt -0.1044171 0.1452268
vt -0.1042836 0.1450852
vt -0.02709508 0.01502803
vt -0.1515716 0.09162755
vt -0.1521172 0.09075673
vt 0.07402535 0.256649
vt 0.07211011 0.2575091
vt -0.02201981 0.04278196
vt 0.03808282 0.1766146
vt -0.1079334 0.2124098
vt -0.1276478 0.245372
vt -0.1645436 0.2090332
vt -0.139561 0.1825215
vt -0.09195686 0.2227542
vt -0.1170987 0.2506952
vt -0.09860242 0.2170344
vt -0.09857167 0.2169785
vt -0.1952581 0.1185131
vt -0.1953794 0.1185878
vt -0.2264037 0.1376794
vt -0.227262 0.1362759
vt -0.1960252 0.1173549
vt -0.09025554 0.2208639
vt -0.09195653 0.2227543
vt -0.09857135 0.2169785
vt -0.09739082 0.21483
vt -0.1065889 0.2101631
vt -0.1066417 0.2102514
vt -0.1078999 0.2123552
vt -0.1079327 0.21241
vt -0.1395604 0.1825218
vt -0.1394627 0.1824181
vt -0.1377714 0.1806232
vt -0.1376797 0.1805259
vt -0.1931584 0.1172198
vt -0.1952587 0.1185123
vt -0.1960258 0.1173541
vt -0.1939372 0.1160889
vt -0.03660433 0.1612389
vt -0.04223477 0.1674962
vt -0.05537219 0.162073
vt -0.07620765 0.1593648
vt -0.1065895 0.210163
vt -0.1376802 0.1805257
vt -0.1094692 0.1505881
vt -0.09172978 0.155269
vt -0.09172976 0.155269
vt -0.1094692 0.1505881
vt -0.1044171 0.1452268
vt -0.1515711 0.09162835
vt -0.1517369 0.09173034
vt -0.1580108 0.09559116
vt -0.1930441 0.1171499
vt -0.1931581 0.11722
vt -0.1939369 0.1160892
vt -0.1521167 0.09075753
vt -0.1828073 0.03182908
vt -0.22629 0.05418692
vt -0.2284617 0.05530353
vt -0.2609403 0.07200329
vt -0.1832996 0.0311461
vt -0.04223482 0.1674962
vt -0.09025614 0.2208637
vt -0.0973914 0.2148299
vt -0.0973419 0.2147398
vt -0.06883715 0.1628651
vt -0.06872803 0.1626665
vt -0.05537224 0.1620729
vt -0.2252577 0.1385392
vt -0.2261231 0.13714
vt -0.1955116 0.1182075
vt -0.1930615 0.1166922
vt -0.1662737 0.1001245
vt -0.1510696 0.09072115
vt -0.02673305 0.01382194
vt 0.02586743 0.01522152
vt 0.02673282 0.01382229
vt 0.03491134 0.01888051
vt 0.08731683 0.05129211
vt 0.1134079 0.06742886
vt 0.1235752 0.07371707
vt 0.1791563 0.1080927
vt 0.1882044 0.1136888
vt 0.1897726 0.1146587
vt 0.1922807 0.1162098
vt 0.2261228 0.1371405
vt 0.2252574 0.1385397
vt 0.09412 -0.07430571
vt 0.280815 0.06749951
vt 0.2799476 0.0686415
vt 0.2497599 0.1083853
vt 0.248971 0.109424
vt -0.06227601 -0.03238121
vt -0.1786961 0.0560463
vt -0.1777785 0.03760891
vt -0.1552001 0.006089179
vt -0.1240937 -0.0373359
vt -0.1238482 -0.03767864
vt -0.1095463 -0.04149879
vt -0.09165461 -0.0462778
vt -0.06821898 -0.04020547
vt 0.04774833 -0.04185554
vt 0.05536733 -0.04805948
vt 0.06535055 -0.05618852
vt 0.07417092 -0.06337067
vt 0.08141368 -0.06926824
vt 0.08717521 -0.07395966
vt 0.08831968 -0.07283542
vt 0.048627 -0.0425265
vt -0.04878532 -0.04057713
vt -0.04979674 -0.04140071
vt -0.0477465 -0.0418529
vt -0.04115419 -0.01550415
vt -0.0403689 -0.01289038
vt -0.2512206 0.08860418
vt 0.2500786 0.1068657
vt 0.06153064 -0.03173168
vt 0.06304225 -0.03379971
vt 0.09335097 -0.07526578
vt 0.09575529 -0.06552765
vt 0.05504502 -0.03421109
vt 0.05349408 -0.03597839
vt 0.09442291 -0.06459605
vt 0.05504537 -0.03421104
vt 0.05301502 -0.03264919
vt 0.0525884 -0.03534483
vt 0.05349444 -0.03597834
vt 0.08717478 -0.07395924
vt 0.08857258 -0.0750974
vt 0.0896114 -0.07382164
vt 0.08831926 -0.07283498
vt -0.04979928 -0.04140242
vt -0.08850072 -0.07291536
vt -0.08753771 -0.07425287
vt -0.08850223 -0.07291615
vt -0.08961427 -0.07382164
vt -0.08857546 -0.07509743
vt -0.08753923 -0.07425365
vt -0.04774769 -0.04185612
vt -0.04979793 -0.04140392
vt -0.08753629 -0.07425445
vt -0.2203085 0.08765329
vt -0.248971 0.1094241
vt -0.2800067 0.06856368
vt -0.280815 0.06749956
vt -0.2491275 0.04343116
vt -0.2180146 0.08591048
vt -0.2203086 0.08765295
vt -0.2491276 0.04343077
vt -0.2467792 0.04164705
vt -0.2327864 0.06317934
vt -0.2199714 0.08289924
vt -0.1786961 0.05604634
vt -0.1929321 0.06685944
vt -0.1877081 0.02043993
vt -0.1847965 -0.005431854
vt -0.1752765 -0.01266277
vt -0.1777785 0.03760894
vt -0.1777785 0.03760897
vt -0.1752765 -0.01266275
vt -0.1508467 -0.03121861
vt -0.1522688 -0.01903109
vt -0.1532286 -0.01080638
vt -0.1552001 0.006089235
vt -0.1508467 -0.03121861
vt -0.1017778 -0.06848915
vt -0.1238482 -0.03767858
vt -0.1240937 -0.03733585
vt -0.1467515 -0.02261555
vt -0.1522688 -0.01903108
vt -0.1240937 -0.03733589
vt -0.1552001 0.00608919
vt -0.1532286 -0.01080643
vt -0.1467515 -0.0226156
vt -0.1532286 -0.01080635
vt -0.1522688 -0.01903105
vt -0.1467516 -0.02261552
vt -0.1238482 -0.03767852
vt -0.1017778 -0.0684891
vt -0.09412004 -0.07430564
vt -0.09302978 -0.07287016
vt -0.08853568 -0.06695343
vt -0.09492806 -0.05137768
vt -0.1095463 -0.04149869
vt -0.0916546 -0.04627781
vt -0.07600608 -0.05045765
vt -0.06821898 -0.04020548
vt -0.08288612 -0.05951565
vt -0.07600607 -0.05045766
vt -0.09165459 -0.04627782
vt -0.1095462 -0.04149882
vt -0.09492801 -0.05137779
vt -0.08853562 -0.06695352
vt -0.08288613 -0.05951564
vt -0.09492801 -0.05137778
vt -0.1929321 0.06685945
vt -0.2180144 0.08591084
vt -0.2199713 0.08289959
vt -0.1976747 0.03973478
vt -0.1877081 0.02043995
vt -0.2199713 0.08289959
vt -0.2327863 0.06317971
vt -0.2122861 0.0494912
vt -0.1976747 0.03973477
vt -0.2327863 0.06317962
vt -0.2467792 0.04164734
vt -0.2453108 0.04053208
vt -0.2300687 0.04466701
vt -0.2122862 0.04949112
vt -0.2453108 0.04053209
vt -0.2368387 0.03409708
vt -0.2300687 0.04466701
vt -0.2368387 0.03409714
vt -0.1847965 -0.005431869
vt -0.1877081 0.02043992
vt -0.1976748 0.03973475
vt -0.2122862 0.04949118
vt -0.2300687 0.04466707
vt 0.2811795 0.06600343
vt 0.2803769 0.06707187
vt 0.2488131 0.04342305
vt 0.2463086 0.04154665
vt 0.2361215 0.03391404
vt 0.1870439 -0.002856726
vt 0.1679405 -0.0171697
vt 0.09274896 -0.07350602
vt -0.07301988 -0.07669611
vt -0.07225952 -0.07523713
vt -0.1314292 -0.04565378
vt -0.1312835 -0.04705563
vt 0.01513897 0.02612853
vt 0.04235123 0.06327484
vt 0.01771702 0.03200784
vt -0.1114626 0.2464097
vt -0.1541463 0.2165828
vt -0.1438451 0.2025138
vt -0.1238687 0.2034749
vt -0.1010714 0.2045716
vt -0.1009536 0.2046633
vt -0.09513097 0.2091961
vt 0.08961184 -0.07382163
vt 0.08831971 -0.07283498
vt 0.08717523 -0.07395925
vt 0.08857302 -0.0750974
vt 0.08726168 -0.07399406
vt 0.03997095 -0.09179294
vt 0.04044925 -0.09336822
vt 0.08866018 -0.07513131
vt 0.09408893 -0.07166873
vt 0.09508967 -0.07294998
vt 0.2798271 0.07140563
vt 0.2261235 0.1371395
vt 0.02586784 0.01522087
vt 0.02673323 0.01382164
vt 0.1114595 0.2463425
vt -0.02756943 0.05757087
vt 0.01393253 0.02700185
vt 0.01507994 0.02615676
vt 0.01765416 0.03203775
vt 0.09499172 0.2087208
vt 0.03846494 -0.09227896
vt 0.03991093 -0.09173537
vt 0.0872086 -0.07395495
vt 0.08835281 -0.07283042
vt -0.01663044 0.0255939
vt 0.02592053 0.05809714
vt -0.03148943 0.1324722
vt -0.0362963 0.1157875
vt -0.04107598 0.09919728
vt -0.0447418 0.0864732
vt 0.04005809 -0.09186277
vt 0.03861262 -0.09240775
vt 0.03920473 -0.09394272
vt 0.0405373 -0.09343778
vt -0.08341874 -0.08129579
vt -0.03348003 -0.09831478
vt -0.08238964 -0.08044334
vt -0.04340954 -0.09534689
vt -0.04226955 -0.09653808
vt -0.04246162 -0.09431131
vt 0.0474039 -0.01680063
vt 0.1019592 0.01921227
vt 0.1020223 0.01925391
vt 0.1021444 0.01933455
vt 0.1022282 0.01938989
vt 0.1052043 0.02135441
vt 0.1070643 0.02318431
vt 0.08565493 0.00883556
vt -0.27785 0.03547075
vt -0.2788327 0.03346336
vt -0.2551376 0.02235684
vt -0.2543787 0.02419646
vt -0.2621321 0.02792079
vt -0.08444386 -0.0837376
vt -0.03546903 -0.1018897
vt -0.03453439 -0.1008422
vt -0.09323695 0.2124665
vt -0.1173365 0.2436876
vt -0.1002995 0.2067916
vt -0.1002736 0.2067355
vt 0.1293614 0.1820489
vt 0.1298658 0.1827375
vt 0.1544122 0.2162449
vt 0.1116615 0.2462517
vt 0.0951693 0.2086406
vt -0.09132525 0.2099892
vt -0.09323741 0.2124664
vt -0.100274 0.2067354
vt -0.09897796 0.2039285
vt -0.1292757 0.1826151
vt -0.1292146 0.1825317
vt -0.1276051 0.1803334
vt -0.0980612 0.2030772
vt -0.1009537 0.2046633
vt -0.1010715 0.2045716
vt -0.127605 0.1803335
vt -0.1274177 0.1800777
vt -0.06248308 0.09139166
vt -0.05082335 0.09384273
vt -0.04504017 0.09505846
vt -0.0915456 0.2010266
vt -0.09167619 0.2013241
vt -0.09802132 0.2031078
vt -0.09806108 0.2030772
vt -0.2406382 0.01556047
vt -0.2405264 0.0155081
vt -0.2378795 0.01426741
vt -0.2370667 0.01588063
vt -0.2373524 0.01601788
vt -0.2398084 0.01719757
vt -0.2378796 0.01426727
vt -0.2375767 0.01412528
vt -0.1262609 -0.03805134
vt -0.1260374 -0.03745186
vt -0.1306715 -0.0352259
vt -0.1379875 -0.03171168
vt -0.2370668 0.01588049
vt -0.2424279 0.01318334
vt -0.2424659 0.0130913
vt 0.2086696 0.08965303
vt 0.2087709 0.08971985
vt 0.2220026 0.09845431
vt 0.2220745 0.09850182
vt 0.2440848 0.1130311
vt 0.2431745 0.1144058
vt 0.2086705 0.09128105
vt -0.24523 0.01124431
vt -0.2453404 0.0112995
vt -0.2594243 0.01834117
vt -0.2594864 0.01816571
vt -0.2453553 0.01097676
vt -0.2426153 0.009935585
vt -0.24523 0.01124285
vt -0.2453553 0.0109753
vt -0.2452472 0.0109203
vt -0.2427327 0.009641087
vt -0.2426523 0.009842852
vt -0.2423161 0.009784973
vt -0.2426153 0.009934587
vt -0.2426523 0.009841854
vt -0.2427327 0.009640088
vt -0.2424756 0.009509305
vt -0.03148938 0.1324722
vt -0.04607511 0.1513681
vt -0.03629625 0.1157875
vt -0.0460752 0.1513681
vt -0.08354674 0.1999127
vt -0.09655938 0.1986917
vt -0.04804555 0.09362789
vt -0.04770465 0.09288962
vt -0.041076 0.09919725
vt -0.03629632 0.1157875
vt -0.08354682 0.1999127
vt -0.09132491 0.2099893
vt -0.09897763 0.2039286
vt -0.0966957 0.1989867
vt -0.09655947 0.1986917
vt -0.0916762 0.2013243
vt -0.09386366 0.2063086
vt -0.09802132 0.2031079
vt -0.1438451 0.2025138
vt -0.1387636 0.1955737
vt -0.1238686 0.2034749
vt -0.1387637 0.1955737
vt -0.1292756 0.1826151
vt -0.1010714 0.2045716
vt -0.1238687 0.2034748
vt -0.04770471 0.09288965
vt -0.04474188 0.0864732
vt -0.04107606 0.09919728
vt -0.06248302 0.09139169
vt -0.05768823 0.08484308
vt -0.05495995 0.08841975
vt -0.05082329 0.09384276
vt -0.05768834 0.08484301
vt -0.05465125 0.08069503
vt -0.05456443 0.08057646
vt -0.05496006 0.08841968
vt -0.05456429 0.08057655
vt -0.05449209 0.08047795
vt -0.01492554 0.02643891
vt -0.04187311 0.0878422
vt -0.04471328 0.09431388
vt -0.04504007 0.09505852
vt -0.05082325 0.09384279
vt -0.05495991 0.08841978
vt -0.1262607 -0.03805142
vt -0.1254876 -0.0384138
vt -0.1254198 -0.03844559
vt -0.1257946 -0.03756848
vt -0.1259048 -0.03751557
vt -0.1260372 -0.03745193
vt -0.2551375 0.02235699
vt -0.2549572 0.02227249
vt -0.2548958 0.02224368
vt -0.2406381 0.01556073
vt -0.2398083 0.01719783
vt -0.2399015 0.01724259
vt -0.2543786 0.02419661
vt -0.1314291 -0.04565399
vt -0.1315256 -0.04560576
vt -0.1313508 -0.04702158
vt -0.1312834 -0.04705585
vt 0.1052043 0.02135444
vt 0.2060741 0.08794045
vt 0.2063148 0.08809935
vt 0.2086693 0.0896536
vt 0.2086702 0.09128162
vt 0.2079612 0.09080642
vt 0.1070643 0.02318434
vt -0.1254214 -0.03844643
vt -0.1253237 -0.0384922
vt -0.1257962 -0.03756931
vt -0.1315258 -0.04560512
vt -0.1314815 -0.04695455
vt -0.131351 -0.04702093
vt -0.1253224 -0.03849152
vt -0.06542294 -0.06656794
vt -0.1257949 -0.03756864
vt -0.1315926 -0.0455723
vt -0.1323563 -0.04519047
vt -0.2423161 0.009786351
vt -0.2424756 0.009510684
vt -0.1347491 -0.04529279
vt -0.1315707 -0.04690969
vt -0.1315257 -0.04560548
vt -0.1315927 -0.04557199
vt -0.1314814 -0.04695492
vt -0.1315932 -0.04557067
vt -0.1315714 -0.04690806
vt -0.1314819 -0.04695361
vt 0.04235119 0.06327485
vt 0.05758207 0.08406589
vt 0.1293614 0.1820489
vt 0.09516934 0.2086406
vt 0.01771699 0.03200785
vt -0.09806118 0.2030773
vt -0.09802143 0.2031079
vt -0.09386376 0.2063086
vt -0.09510618 0.2091396
vt -0.09513103 0.2091962
vt -0.1009537 0.2046634
vt -0.2594241 0.01834683
vt -0.2594848 0.01837719
vt -0.259563 0.01821049
vt -0.2594861 0.01817138
vt -0.2594849 0.01837295
vt -0.259663 0.01846199
vt -0.2830694 0.03016482
vt -0.2595631 0.01820624
vt 0.2805484 0.0353283
vt 0.279698 0.03693951
vt 0.07235638 -0.07248281
vt -0.06490617 -0.06605506
vt -0.126261 -0.03676619
vt -0.1259007 -0.03764516
vt 0.108198 -0.1073324
vt 0.3022595 0.02422219
vt 0.2741722 0.06660764
vt 0.2733827 0.06776834
vt 0.2546927 0.04795647
vt -0.07445168 -0.1358125
vt -0.07294063 -0.1351586
vt -0.07357655 -0.133519
vt 0.04052756 -0.09343867
vt 0.04004844 -0.09186363
vt 0.03919495 -0.09394353
vt -0.1574693 0.2152507
vt -0.1418622 0.1945146
vt -0.1417621 0.1943816
vt -0.141687 0.1945654
vt -0.07301983 -0.07669596
vt -0.07225949 -0.07523697
vt -0.1324177 -0.04515935
vt -0.1329164 -0.04622468
vt -0.1314476 -0.04697191
vt 0.04006783 -0.09186171
vt 0.03862238 -0.09240676
vt 0.0392146 -0.09394171
vt 0.04106687 -0.0938265
vt 0.03973608 -0.09433614
vt 0.07472284 -0.1334941
vt -0.1061017 -0.1107474
vt -0.100833 -0.1027476
vt -0.1037634 -0.09657563
vt -0.1281863 -0.04513657
vt -0.1319365 -0.03723821
vt -0.1262493 -0.09085947
vt 0.2821977 0.02940393
vt 0.132049 -0.04523943
vt 0.0711697 -0.07550434
vt 0.07191496 -0.07697229
vt 0.2590529 0.01769564
vt 0.2755655 0.06140382
vt 0.2537358 0.04739568
vt 0.256482 0.04197085
vt 0.07369346 -0.1357039
vt 0.03905898 -0.09496905
vt 0.07216404 -0.1350976
vt 0.001997855 0.03732067
vt 0.00378609 0.03597618
vt 0.1438661 0.2239769
vt 0.07357673 -0.1335104
vt 0.07302852 -0.1349239
vt 0.07511065 -0.1341053
vt 0.04034701 -0.09397098
vt 0.05197788 -0.1075571
vt 0.0588405 -0.1155734
vt 0.06873118 -0.1271268
vt 0.07496064 -0.1344036
vt 0.07549466 -0.1329846
vt -0.0422706 -0.09654214
vt -0.0424627 -0.09431534
vt -0.04341063 -0.09535092
vt -0.07486045 -0.1321301
vt -0.03961516 -0.09453844
vt -0.0407601 -0.09335194
vt 0.1133627 -0.04588233
vt 0.2522002 0.1430302
vt 0.2508745 0.1440045
vt -0.07356994 -0.1335229
vt -0.07510383 -0.1341179
vt -0.07444504 -0.1358164
vt -0.2602254 0.12999
vt -0.2615056 0.1289547
vt -0.1128029 -0.05230246
vt -0.1749856 0.02458844
vt -0.2031643 0.05943219
vt -0.228776 0.09110185
vt -0.2304925 0.09322436
vt -0.240343 0.1054048
vt -0.03758228 -0.09591662
vt -0.07212985 -0.1332247
vt -0.07149039 -0.134863
vt -0.2739588 0.067122
vt -0.3025339 0.02424045
vt -0.2762803 0.006619726
vt -0.2550536 0.04736921
vt -0.2411076 0.03568626
vt -0.2547968 0.04418427
vt -0.2540558 0.03530019
vt -0.2537737 0.03502167
vt -0.2453019 0.02665905
vt -0.2610068 -0.003631568
vt -0.227188 -0.02632991
vt -0.2310217 0.00733529
vt -0.2445616 0.02668026
vt -0.24658 0.02295973
vt -0.2385176 0.03407914
vt -0.2410465 0.0356491
vt -0.2411074 0.03568689
vt -0.2453017 0.02665968
vt -0.2433272 0.02471064
vt -0.2432738 0.02465795
vt -0.2632734 -0.00211073
vt -0.2610069 -0.003631976
vt -0.2465802 0.02295934
vt -0.2488404 0.02437853
vt -0.2465799 0.02296011
vt -0.2445614 0.02668064
vt -0.2445014 0.0267913
vt -0.2458094 0.02994177
vt -0.2462337 0.02916294
vt -0.2488402 0.02437931
vt -0.2452033 0.01123
vt -0.2597073 0.0184816
vt -0.2598561 0.01855602
vt -0.2599247 0.01838765
vt -0.2597227 0.01828491
vt -0.2453618 0.01097913
vt -0.245298 0.01094665
vt -0.1324175 -0.04515963
vt -0.1324743 -0.04513125
vt -0.2452033 0.01123011
vt -0.245298 0.01094676
vt -0.2426449 0.009597067
vt -0.1329163 -0.04622497
vt -0.05623119 0.08071883
vt -0.05619302 0.08066813
vt -0.01574255 0.02693332
vt -0.01450575 0.0278589
vt -0.05532461 0.08134983
vt -0.05536489 0.08140261
vt -0.2547967 0.04418437
vt -0.2549892 0.04430386
vt -0.2770516 0.05799981
vt -0.257593 0.03879196
vt -0.2540558 0.03530028
vt -0.246234 0.02916215
vt -0.2458096 0.02994098
vt -0.2431121 0.03489173
vt -0.251343 0.04349159
vt -0.1899797 -0.05130329
vt -0.1078708 -0.1064127
vt -0.1274454 -0.08596047
vt -0.1378812 -0.07505684
vt -0.2411418 0.03283352
vt -0.2411937 0.0328877
vt -0.2445016 0.02679082
vt -0.2445616 0.02668016
vt -0.2310217 0.007335194
vt -0.227188 -0.02632996
vt -0.1899797 -0.05130325
vt -0.2310217 0.007335244
vt -0.1339216 -0.03085305
vt -0.2385178 0.03407855
vt -0.243274 0.02465735
vt -0.1369906 -0.08025659
vt -0.126261 -0.03676622
vt -0.2775826 0.03546988
vt -0.2785663 0.0334629
vt -0.2549807 0.0224773
vt -0.1259609 -0.03761717
vt -0.1259008 -0.0376452
vt -0.1325215 -0.03172234
vt -0.1339216 -0.03085319
vt -0.1369905 -0.08025672
vt -0.1262493 -0.09085953
vt -0.1319365 -0.03723828
vt -0.100833 -0.1027476
vt -0.09246774 -0.090046
vt -0.1141115 -0.06003197
vt -0.1037634 -0.09657559
vt -0.08666358 -0.08123296
vt -0.07682657 -0.06629665
vt -0.1325215 -0.03172209
vt -0.1319365 -0.03723802
vt -0.1281864 -0.0451364
vt -0.1192522 -0.052903
vt -0.09246779 -0.09004587
vt -0.08666359 -0.08123293
vt -0.1192522 -0.05290295
vt -0.1141115 -0.06003181
vt -0.1141114 -0.06003214
vt -0.1192522 -0.0529033
vt -0.1281864 -0.04513672
vt -0.1037633 -0.09657575
vt -0.2445016 0.02679081
vt -0.2411937 0.03288769
vt -0.243112 0.03489203
vt -0.2458095 0.02994128
vt -0.1417817 0.1943672
vt -0.1320292 0.1814118
vt -0.05623059 0.08071928
vt -0.05536428 0.08140307
vt -0.1417066 0.194551
vt -0.2762804 0.006619597
vt -0.2632733 -0.002110404
vt -0.2488403 0.02437884
vt -0.2462339 0.02916248
vt -0.2513429 0.04349193
vt -0.251617 0.04377835
vt -0.2550537 0.04736909
vt -0.2598561 0.01855663
vt -0.2830696 0.03016278
vt -0.2599246 0.01838826
vt 0.2537358 0.04739571
vt 0.07723077 -0.06586774
vt 0.1069017 -0.1103482
vt 0.256482 0.04197088
vt -0.1120297 -0.04489326
vt -0.1942823 0.06704068
vt -0.196792 0.07045607
vt -0.1980947 0.0722288
vt -0.2024571 0.0781654
vt -0.2075513 0.08509792
vt -0.2173013 0.09836622
vt -0.2438265 0.1344632
vt -0.2484794 0.1407951
vt -0.2508551 0.1440282
vt -0.2521809 0.143054
vt -0.1133555 -0.04586749
vt 0.1120374 -0.04491044
vt 0.1133631 -0.04588475
vt 0.2522033 0.1430256
vt 0.2508776 0.1439999
vt 0.1973203 0.07112813
vt 0.1883192 0.05888103
vt 0.1652365 0.02747395
vt 0.1356957 -0.01272018
vt -0.146789 -0.2135228
vt -0.1120676 -0.1477303
vt -0.163312 -0.1130154
vt -0.1887597 -0.09577608
vt -0.2031675 -0.09189779
vt -0.2144374 -0.09165259
vt -0.2285477 -0.09773247
vt -0.2474329 -0.1120216
vt -0.2556247 -0.120215
vt -0.2658755 -0.1372875
vt -0.2696368 -0.1486913
vt 0.146789 -0.2135228
vt 0.3541306 -0.1041004
vt 0.2805479 0.03532917
vt 0.2796976 0.0369404
vt 0.07235616 -0.07248211
vt 0.01591023 -0.2821978
vt 0.01744412 -0.2827927
vt 0.0751092 -0.1341068
vt 0.07302707 -0.1349255
vt 0.06641995 -0.1519617
vt 0.06107919 -0.1657325
vt 0.05935936 -0.1701669
vt 0.05844647 -0.1725208
vt 0.05760211 -0.174698
vt 0.05305755 -0.1864158
vt 0.05292612 -0.1867548
vt 0.04594664 -0.2047509
vt 0.04280981 -0.212839
vt -0.01590595 -0.282198
vt -0.02501655 -0.2587078
vt -0.02938249 -0.2474508
vt -0.03251862 -0.2393649
vt -0.03611125 -0.230102
vt -0.03673527 -0.2284929
vt -0.06141376 -0.1648636
vt -0.06792183 -0.1480836
vt -0.07293714 -0.1351525
vt -0.07444819 -0.1358064
vt -0.01743984 -0.282793
vt 0.07510798 -0.1341057
vt 0.0735741 -0.1335108
vt 0.07302585 -0.1349243
vt -0.07293877 -0.1351553
vt -0.07357471 -0.1335157
vt -0.0751086 -0.1341106
vt -0.07444982 -0.1358092
vt -0.1997159 -0.005268953
vt -0.2796974 0.03694057
vt -0.2805183 0.03538522
vt -0.2869917 0.023119
vt -0.2628772 -0.009160789
vt -0.2548935 -0.01984772
vt -0.2380412 -0.03110362
vt -0.2251052 -0.02771488
vt -0.2093192 -0.01680377
vt -0.3436331 -0.1096406
vt -0.3040166 -0.1305479
vt -0.2919608 -0.1160673
vt -0.3127873 -0.09644992
vt -0.3177651 -0.09176102
vt -0.3182994 -0.09213021
vt -0.3280511 -0.05468231
vt -0.3326882 -0.06346904
vt -0.3234233 -0.06350271
vt -0.3205 -0.06351335
vt -0.3088653 -0.06003295
vt -0.3007072 -0.05759253
vt -0.2701892 -0.04846335
vt -0.2778919 -0.04154258
vt -0.2816095 -0.04251642
vt -0.2897662 -0.04465315
vt -0.2953922 0.007201493
vt -0.3272456 -0.0531565
vt -0.2827726 -0.01172259
vt -0.2796391 -0.003320209
vt -0.2352982 -0.04800805
vt -0.2213223 -0.03122121
vt -0.2093192 -0.01680393
vt -0.2251051 -0.02771504
vt -0.2412365 -0.03886493
vt -0.2869919 0.02311888
vt -0.2953921 0.007201592
vt -0.2796389 -0.003320118
vt -0.2764971 -0.005418615
vt -0.2628773 -0.009160891
vt -0.276497 -0.005418741
vt -0.2762111 -0.005609698
vt -0.2548936 -0.01984795
vt -0.2628773 -0.00916102
vt -0.3272454 -0.05315664
vt -0.3280509 -0.05468292
vt -0.289766 -0.04465378
vt -0.2845234 -0.02016419
vt -0.2827023 -0.01165742
vt -0.2827724 -0.01172276
vt -0.2827723 -0.01172219
vt -0.2827022 -0.01165686
vt -0.276211 -0.005609269
vt -0.2764969 -0.005418311
vt -0.2796388 -0.003319812
vt -0.2897663 -0.04465406
vt -0.2816095 -0.04251733
vt -0.2828047 -0.03334959
vt -0.2845237 -0.02016447
vt -0.2816095 -0.04251732
vt -0.2778919 -0.04154348
vt -0.2774267 -0.04142158
vt -0.2828047 -0.03334958
vt -0.2774263 -0.04142099
vt -0.2380412 -0.03110366
vt -0.2548935 -0.01984775
vt -0.276211 -0.005609495
vt -0.2827021 -0.01165708
vt -0.2845232 -0.02016385
vt -0.2828043 -0.03334898
vt -0.2636386 -0.05434896
vt -0.2412365 -0.03886484
vt -0.2251051 -0.02771495
vt -0.2380411 -0.03110369
vt -0.2774262 -0.04142102
vt -0.2778915 -0.04154291
vt -0.2701888 -0.04846369
vt -0.2685979 -0.04989311
vt -0.2716406 -0.05988011
vt -0.2636384 -0.05434906
vt -0.2685977 -0.04989321
vt -0.2708088 -0.05714994
vt -0.3505824 -0.1059732
vt -0.3436331 -0.1096406
vt -0.3182994 -0.09213018
vt -0.317888 -0.08596352
vt -0.3182575 -0.08618964
vt -0.3326883 -0.0634693
vt -0.3367361 -0.07113949
vt -0.3234234 -0.06350295
vt -0.3423714 -0.08181799
vt -0.3541308 -0.1041006
vt -0.3505825 -0.1059732
vt -0.3182576 -0.08618964
vt -0.306765 -0.07017193
vt -0.3046731 -0.06725635
vt -0.3182573 -0.08618954
vt -0.3178878 -0.08596341
vt -0.2814388 -0.06365574
vt -0.2929765 -0.06361385
vt -0.2952219 -0.06360567
vt -0.3023286 -0.0663508
vt -0.3067648 -0.07017184
vt -0.3182993 -0.09213001
vt -0.3177651 -0.09176082
vt -0.2962726 -0.07690539
vt -0.2779819 -0.064263
vt -0.271641 -0.05988017
vt -0.2708091 -0.05715
vt -0.2798315 -0.06267197
vt -0.2814389 -0.06365567
vt -0.3178879 -0.08596335
vt -0.2919607 -0.1160673
vt -0.2830411 -0.1053536
vt -0.3075854 -0.09800696
vt -0.3127872 -0.0964499
vt -0.2830411 -0.1053538
vt -0.2781441 -0.09947185
vt -0.2792044 -0.09385341
vt -0.3044257 -0.09754468
vt -0.3075854 -0.09800709
vt -0.2726701 -0.0928968
vt -0.2678302 -0.0870835
vt -0.2840613 -0.08271063
vt -0.279002 -0.09382354
vt -0.2779821 -0.06426273
vt -0.2962728 -0.07690514
vt -0.2981397 -0.08380418
vt -0.2933217 -0.0804932
vt -0.2879391 -0.07679428
vt -0.2962728 -0.07690546
vt -0.3177653 -0.0917609
vt -0.3127875 -0.0964498
vt -0.3075857 -0.09800685
vt -0.304426 -0.09754443
vt -0.3005314 -0.09264284
vt -0.2981397 -0.0838045
vt -0.2981396 -0.08380441
vt -0.3005313 -0.09264275
vt -0.2911271 -0.08080695
vt -0.2933216 -0.08049344
vt -0.2911271 -0.08080657
vt -0.287939 -0.07679415
vt -0.2933215 -0.08049306
vt -0.2678303 -0.08708327
vt -0.2352981 -0.04800794
vt -0.2412365 -0.03886481
vt -0.2636386 -0.05434894
vt -0.2716408 -0.05988
vt -0.2779818 -0.06426283
vt -0.2879388 -0.07679438
vt -0.2911269 -0.0808068
vt -0.2840614 -0.08271039
vt -0.2840614 -0.08271066
vt -0.2911269 -0.08080707
vt -0.3005311 -0.09264287
vt -0.3044257 -0.09754445
vt -0.2792043 -0.09385319
vt -0.2790021 -0.09382357
vt -0.2781439 -0.09947123
vt -0.2780046 -0.09930385
vt -0.2726701 -0.09289642
vt -0.2790021 -0.09382316
vt -0.2792043 -0.09385279
vt -0.278005 -0.09930435
vt -0.2781444 -0.09947173
vt -0.2830414 -0.1053537
vt -0.291961 -0.1160673
vt -0.3040168 -0.1305479
vt -0.2894548 -0.1382329
vt -0.2827815 -0.1196759
vt -0.2788492 -0.1087411
vt -0.2894547 -0.138233
vt -0.2818462 -0.1422482
vt -0.2803871 -0.125936
vt -0.2827813 -0.119676
vt -0.2803869 -0.1259355
vt -0.2788487 -0.1087407
vt -0.2827811 -0.1196755
vt -0.3367359 -0.07113989
vt -0.3423713 -0.08181804
vt -0.304673 -0.06725641
vt -0.3023288 -0.06635096
vt -0.2952221 -0.06360583
vt -0.2959007 -0.06360339
vt -0.3204998 -0.06351401
vt -0.3234232 -0.06350337
vt -0.186274 -0.01236297
vt -0.199716 -0.005269102
vt -0.2093193 -0.01680392
vt -0.2213224 -0.0312212
vt -0.258237 -0.1200961
vt -0.2533037 -0.1127106
vt -0.2503605 -0.1083044
vt -0.2394786 -0.09201357
vt -0.1518027 -0.03055491
vt -0.186274 -0.01236299
vt -0.2394786 -0.09201358
vt -0.2277393 -0.09201858
vt -0.2271689 -0.09155692
vt -0.2129442 -0.08004338
vt -0.107687 -0.05383651
vt -0.1518027 -0.03055489
vt -0.2129442 -0.08004335
vt -0.205036 -0.08497144
vt -0.09070851 -0.1072505
vt -0.08848868 -0.1030441
vt -0.09185998 -0.1070561
vt -0.09136266 -0.1071401
vt -0.1080186 -0.1400578
vt -0.09900968 -0.122987
vt -0.1265422 -0.1219058
vt -0.1377515 -0.1214655
vt -0.09884023 -0.1226652
vt -0.09297422 -0.11155
vt -0.1016217 -0.1148482
vt -0.1124833 -0.1189909
vt -0.09188586 -0.1094856
vt -0.09070752 -0.1072527
vt -0.09136166 -0.1071422
vt -0.09444718 -0.1096532
vt -0.1060478 -0.1046622
vt -0.1862918 -0.09111333
vt -0.1843834 -0.09230673
vt -0.1713329 -0.1004673
vt -0.1638188 -0.105166
vt -0.1368528 -0.1124284
vt -0.1165228 -0.111098
vt -0.0815921 -0.08998328
vt -0.0730637 -0.07382309
vt -0.07235613 -0.07248218
vt -0.107687 -0.0538366
vt -0.205036 -0.08497153
vt -0.2111274 -0.08691976
vt -0.2056138 -0.08785073
vt -0.1862918 -0.09111317
vt -0.1060478 -0.104662
vt -0.1037547 -0.1050492
vt -0.2671164 -0.1333892
vt -0.2753305 -0.1456863
vt -0.273385 -0.1467131
vt -0.2213223 -0.03122117
vt -0.2352982 -0.04800801
vt -0.2678303 -0.08708334
vt -0.2726702 -0.09289663
vt -0.2780047 -0.09930407
vt -0.2788488 -0.1087408
vt -0.280387 -0.1259356
vt -0.2818461 -0.1422478
vt -0.2753307 -0.1456863
vt -0.2671165 -0.1333892
vt -0.2621253 -0.1259171
vt -0.2582369 -0.1200961
vt -0.2621253 -0.1259172
vt -0.2671165 -0.1333892
vt -0.2733852 -0.1467132
vt -0.2696368 -0.1486914
vt -0.2658755 -0.1372875
vt -0.249053 -0.10927
vt -0.2533038 -0.1127106
vt -0.2582371 -0.1200961
vt -0.2621254 -0.1259172
vt -0.2658756 -0.1372875
vt -0.2556247 -0.120215
vt -0.2276049 -0.09218954
vt -0.2281765 -0.09237233
vt -0.2447759 -0.105808
vt -0.249053 -0.1092699
vt -0.2556248 -0.120215
vt -0.247433 -0.1120216
vt -0.2165487 -0.08865347
vt -0.2258387 -0.09162465
vt -0.2276049 -0.09218952
vt -0.247433 -0.1120216
vt -0.2285478 -0.09773244
vt -0.2503605 -0.1083044
vt -0.2533038 -0.1127107
vt -0.2490529 -0.10927
vt -0.2447758 -0.1058081
vt -0.2056138 -0.08785065
vt -0.2111274 -0.08691967
vt -0.2165486 -0.08865353
vt -0.2285477 -0.0977325
vt -0.2144374 -0.09165262
vt -0.2394786 -0.09201355
vt -0.2503605 -0.1083044
vt -0.2447758 -0.1058081
vt -0.2281764 -0.09237238
vt -0.2277393 -0.09201856
vt -0.2271691 -0.09155598
vt -0.2277394 -0.09201765
vt -0.2281766 -0.09237147
vt -0.227605 -0.09218868
vt -0.2258388 -0.0916238
vt -0.1843833 -0.09230659
vt -0.1862918 -0.09111319
vt -0.2056137 -0.08785076
vt -0.2144374 -0.09165274
vt -0.2031675 -0.09189794
vt -0.1713329 -0.1004672
vt -0.1843833 -0.09230663
vt -0.2031675 -0.09189798
vt -0.1887597 -0.09577627
vt -0.2129443 -0.08004322
vt -0.2271689 -0.09155677
vt -0.2258387 -0.09162459
vt -0.2165487 -0.08865341
vt -0.2111275 -0.08691954
vt -0.205036 -0.08497131
vt -0.1120676 -0.1477303
vt -0.1080187 -0.1400581
vt -0.1377515 -0.1214658
vt -0.1383074 -0.1211182
vt -0.163312 -0.1130154
vt -0.1383073 -0.1211182
vt -0.1638188 -0.1051657
vt -0.1713329 -0.100467
vt -0.1887597 -0.0957761
vt -0.163312 -0.1130154
vt -0.09900977 -0.1229877
vt -0.0988401 -0.1226661
vt -0.1124832 -0.1189918
vt -0.1128462 -0.118894
vt -0.1265423 -0.1219064
vt -0.1128461 -0.1188937
vt -0.1368527 -0.1124282
vt -0.1638187 -0.1051657
vt -0.1383073 -0.1211182
vt -0.1377514 -0.1214658
vt -0.1265421 -0.1219061
vt -0.09297433 -0.1115507
vt -0.09188443 -0.1094855
vt -0.09444576 -0.1096531
vt -0.09461083 -0.1096639
vt -0.1016218 -0.114849
vt -0.09461042 -0.1096638
vt -0.1165227 -0.1110978
vt -0.1368527 -0.1124283
vt -0.1128461 -0.1188938
vt -0.112483 -0.1189916
vt -0.1016214 -0.1148489
vt -0.09135986 -0.1071424
vt -0.09185718 -0.1070585
vt -0.1037547 -0.1050496
vt -0.1060477 -0.1046625
vt -0.1165228 -0.1110982
vt -0.09461047 -0.1096642
vt -0.09444539 -0.1096534
vt -0.08848591 -0.1030462
vt -0.08159215 -0.0899834
vt -0.1037547 -0.1050493
vt -0.09185725 -0.1070581
vt -0.3204998 -0.06351449
vt -0.2959007 -0.06360387
vt -0.2972799 -0.06202444
vt -0.3006445 -0.06078121
vt -0.3088651 -0.06003411
vt -0.2798314 -0.06267183
vt -0.270809 -0.05714986
vt -0.2685979 -0.04989313
vt -0.2701888 -0.0484637
vt -0.3007068 -0.05759285
vt -0.2979269 -0.06102734
vt -0.2929764 -0.06361454
vt -0.2814388 -0.06365643
vt -0.2798314 -0.06267274
vt -0.2979269 -0.06102824
vt -0.3006444 -0.06078126
vt -0.2972797 -0.0620245
vt -0.300707 -0.05759278
vt -0.3088652 -0.0600332
vt -0.3006446 -0.06078029
vt -0.2979272 -0.06102728
vt -0.2959009 -0.06360638
vt -0.2952223 -0.06360883
vt -0.2929768 -0.06361699
vt -0.2972801 -0.06202696
vt -0.3023293 -0.06635034
vt -0.3046735 -0.0672558
vt -0.3067654 -0.07017139
o group18465996
g mesh18465996
usemtl mat21
f 8/8/1 7/7/1 6/6/1 5/5/1 4/4/1 3/3/1 2/2/1 1/1/1
f 14/15/3 13/14/3 2/13/3
f 17/24/5 10/23/5 8/22/5 1/21/5
f 3/27/6 14/26/6 2/25/6
f 17/30/7 18/29/7 9/28/7
f 17/33/8 9/32/8 10/31/8
f 17/36/9 1/35/9 18/34/9
f 18/39/10 1/38/10 13/37/10
f 9/42/11 18/41/11 13/40/11
f 14/45/12 19/44/12 13/43/12
f 2/48/13 13/47/13 1/46/13
f 53/139/30 52/138/30 51/137/30 50/136/30 49/135/30 48/134/30 47/133/30 46/132/30 45/131/30 44/130/30 43/129/30 42/128/30
f 35/144/31 55/143/31 54/142/31 53/141/31 42/140/31
f 68/161/33 67/160/33 66/159/33 65/158/33 64/157/33 63/156/33 62/155/33 41/154/33
f 36/164/34 55/163/34 35/162/34
f 42/171/36 70/170/36 69/169/36 35/168/36
f 67/175/37 68/174/37 70/173/37 42/172/37
f 68/179/38 41/178/38 69/177/38 70/176/38
f 67/183/39 42/182/39 43/181/39 66/180/39
f 71/186/40 54/185/40 55/184/40
f 71/190/41 52/189/41 53/188/41 54/187/41
f 71/193/42 55/192/42 36/191/42
f 89/278/59 88/277/59 87/276/59 86/275/59 85/274/59 84/273/59 83/272/59 82/271/59
f 95/285/61 94/284/61 90/283/61
f 104/296/63 103/295/63 89/294/63 102/293/63
f 104/300/64 106/299/64 105/298/64 103/297/64
f 82/303/65 102/302/65 89/301/65
f 104/306/66 102/305/66 82/304/66
f 107/312/67 95/311/67 90/310/67 106/309/67 104/308/67 82/307/67
f 89/316/68 103/315/68 105/314/68 91/313/68
f 106/326/70 90/325/70 91/324/70 105/323/70
f 83/329/71 96/328/71 82/327/71
f 96/332/72 112/331/72 111/330/72
f 96/348/75 111/347/75 82/346/75
f 107/357/77 82/356/77 111/355/77 122/354/77 121/353/77
f 142/391/83 137/390/83
f 149/414/87 148/413/87 142/412/87 137/411/87 138/410/87
f 153/485/102 92/484/102 155/483/102
f 95/508/108 107/507/108 121/506/108 117/505/108 94/504/108
f 159/525/112 158/524/112 157/523/112
f 166/533/114 165/532/114 164/531/114 163/530/114 159/529/114
f 163/536/115 167/535/115 157/534/115
f 169/539/116 160/538/116 168/537/116
f 169/551/119 174/550/119 160/549/119
f 178/554/120 169/553/120 168/552/120
f 178/571/124 168/570/124 159/569/124
f 157/574/125 179/573/125 159/572/125
f 159/577/126 179/576/126 178/575/126
f 178/583/127 179/582/127 180/581/127 187/580/127 186/579/127 169/578/127
f 164/586/128 165/585/128 170/584/128
f 164/589/129 170/588/129 167/587/129
f 163/592/130 158/591/130 159/590/130
f 157/595/131 158/594/131 163/593/131
f 192/603/132 191/602/132 190/601/132 189/600/132 188/599/132 179/598/132 157/597/132 167/596/132
f 167/606/133 163/605/133 164/604/133
f 213/655/142 162/654/142 160/653/142 174/652/142 175/651/142 212/650/142
f 166/732/158 159/731/158 168/730/158 185/729/158
f 228/744/159 227/743/159 226/742/159 225/741/159 224/740/159 223/739/159 222/738/159 221/737/159 220/736/159 219/735/159 218/734/159 217/733/159
f 236/752/160 235/751/160 234/750/160 233/749/160 232/748/160 231/747/160 230/746/160 229/745/160
f 230/768/162 231/767/162 246/766/162 227/765/162 228/764/162
f 237/781/163 255/780/163 254/779/163 253/778/163 252/777/163 251/776/163 250/775/163 249/774/163 248/773/163 247/772/163 230/771/163 228/770/163 217/769/163
f 227/792/164 246/791/164 263/790/164 262/789/164 261/788/164 260/787/164 259/786/164 258/785/164 257/784/164 256/783/164 226/782/164
f 247/795/165 229/794/165 230/793/165
f 246/799/166 231/798/166 232/797/166 263/796/166
usemtl mat9
f 12/12/2 11/11/2 10/10/2 9/9/2
f 16/20/4 15/19/4 7/18/4 8/17/4 10/16/4
f 23/54/14 22/53/14 21/52/14 20/51/14 16/50/14 10/49/14
f 11/57/15 23/56/15 10/55/15
f 62/153/32 61/152/32 60/151/32 59/150/32 58/149/32 57/148/32 56/147/32 40/146/32 41/145/32
f 77/226/48 76/225/48 57/224/48 58/223/48
f 62/239/51 63/238/51 61/237/51
f 78/244/52 60/243/52 61/242/52 63/241/52 64/240/52
f 78/247/53 64/246/53 65/245/53
f 81/270/58 80/269/58 79/268/58 74/267/58 47/266/58 48/265/58
f 99/367/79 100/366/79 127/365/79 126/364/79 125/363/79 124/362/79
f 127/376/80 134/375/80 133/374/80 132/373/80 131/372/80 130/371/80 129/370/80 128/369/80 126/368/80
f 125/382/81 126/381/81 128/380/81 137/379/81 136/378/81 135/377/81
f 128/389/82 129/388/82 141/387/82 140/386/82 139/385/82 138/384/82 137/383/82
f 122/398/84 111/397/84 112/396/84 146/395/84 145/394/84 144/393/84 143/392/84
f 144/403/85 145/402/85 147/401/85 135/400/85 136/399/85
f 108/424/89 109/423/89 150/422/89 131/421/89 132/420/89 86/419/89 87/418/89
f 98/439/93 99/438/93 124/437/93 119/436/93
f 130/446/95 151/445/95 141/444/95 129/443/95
f 151/450/96 152/449/96 140/448/96 141/447/96
f 140/464/98 152/463/98 153/462/98 155/461/98 154/460/98 139/459/98
f 119/471/99 124/470/99 125/469/99 135/468/99 147/467/99 156/466/99 118/465/99
f 93/475/100 113/474/100 155/473/100 92/472/100
f 117/482/101 121/481/101 122/480/101 143/479/101 148/478/101 149/477/101 116/476/101
f 113/488/103 114/487/103 155/486/103
f 115/497/105 116/496/105 149/495/105 138/494/105 139/493/105 154/492/105
f 114/500/106 154/499/106 155/498/106
f 114/503/107 115/502/107 154/501/107
f 162/528/113 161/527/113 160/526/113
f 184/560/121 183/559/121 182/558/121 181/557/121 180/556/121 179/555/121
f 166/568/123 185/567/123 165/566/123
f 198/615/135 197/614/135 196/613/135 195/612/135 194/611/135
f 205/626/137 204/625/137 198/624/137 194/623/137 203/622/137 202/621/137
f 203/643/140 194/642/140 195/641/140 211/640/140 171/639/140 172/638/140 210/637/140
f 176/649/141 202/648/141 203/647/141 210/646/141 212/645/141 175/644/141
f 197/664/144 198/663/144 208/662/144 209/661/144
f 199/673/145 200/672/145 207/671/145 204/670/145 205/669/145 214/668/145 184/667/145 179/666/145 188/665/145
f 199/676/146 188/675/146 189/674/146
f 214/680/147 205/679/147 202/678/147 176/677/147
f 162/686/148 213/685/148 173/684/148 170/683/148 165/682/148 161/681/148
f 183/691/149 184/690/149 214/689/149 176/688/149 177/687/149
f 181/709/153 182/708/153 216/707/153 215/706/153
f 208/713/154 198/712/154 204/711/154 207/710/154
f 173/718/155 213/717/155 212/716/155 210/715/155 172/714/155
f 211/728/157 170/727/157 171/726/157
f 218/763/161 245/762/161 244/761/161 243/760/161 242/759/161 241/758/161 240/757/161 239/756/161 238/755/161 237/754/161 217/753/161
f 272/814/168 271/813/168 270/812/168 269/811/168 223/810/168 224/809/168
f 285/833/171 267/832/171 268/831/171 284/830/171 283/829/171
f 264/842/173 265/841/173 287/840/173 286/839/173
f 290/868/178 288/867/178 289/866/178 287/865/178 265/864/178 266/863/178 291/862/178
f 293/876/179 277/875/179 278/874/179 291/873/179 266/872/179 267/871/179 285/870/179 292/869/179
f 295/880/180 293/879/180 292/878/180 294/877/180
f 297/885/181 296/884/181 272/883/181 224/882/181 225/881/181
f 299/894/183 298/893/183 297/892/183 225/891/183 226/890/183 256/889/183
f 270/914/186 308/913/186 307/912/186 269/911/186
f 308/919/187 311/918/187 310/917/187 309/916/187 307/915/187
f 315/923/188 314/922/188 313/921/188 312/920/188
f 317/939/191 320/938/191 319/937/191 316/936/191
f 317/942/192 318/941/192 320/940/192
f 314/951/193 320/950/193 318/949/193 305/948/193 294/947/193 292/946/193 285/945/193 283/944/193 313/943/193
f 315/957/194 310/956/194 311/955/194 319/954/194 320/953/194 314/952/194
f 310/962/195 315/961/195 312/960/195 321/959/195 309/958/195
f 323/970/196 322/969/196 222/968/196 223/967/196 269/966/196 307/965/196 309/964/196 321/963/196
f 322/974/197 324/973/197 221/972/197 222/971/197
f 322/977/198 323/976/198 324/975/198
f 273/985/199 274/984/199 325/983/199 302/982/199 303/981/199 299/980/199 256/979/199 257/978/199
f 329/993/200 328/992/200 327/991/200 326/990/200 284/989/200 268/988/200 233/987/200 234/986/200
f 332/999/201 331/998/201 330/997/201 329/996/201 234/995/201 235/994/201
f 333/1003/202 332/1002/202 235/1001/202 236/1000/202
f 335/1007/203 334/1006/203 249/1005/203 250/1004/203
f 337/1011/204 336/1010/204 254/1009/204 255/1008/204
f 339/1015/205 338/1014/205 252/1013/205 253/1012/205
f 340/1019/206 335/1018/206 250/1017/206 251/1016/206
f 347/1026/207 346/1025/207 345/1024/207 344/1023/207 343/1022/207 342/1021/207 341/1020/207
f 350/1036/208 341/1035/208 342/1034/208 349/1033/208 348/1032/208 333/1031/208 236/1030/208 229/1029/208 247/1028/208 248/1027/208
f 219/1039/209 220/1038/209 351/1037/209
f 326/1051/210 352/1050/210 351/1049/210 220/1048/210 221/1047/210 324/1046/210 323/1045/210 321/1044/210 312/1043/210 313/1042/210 283/1041/210 284/1040/210
f 356/1077/215 353/1076/215 327/1075/215 328/1074/215
f 330/1087/217 355/1086/217 356/1085/217 328/1084/217 329/1083/217
f 358/1092/218 354/1091/218 355/1090/218 330/1089/218 331/1088/218
f 333/1107/221 348/1106/221 357/1105/221 358/1104/221 331/1103/221 332/1102/221
f 238/1112/222 359/1111/222 337/1110/222 255/1109/222 237/1108/222
f 336/1122/224 360/1121/224 339/1120/224 253/1119/224 254/1118/224
f 338/1133/226 361/1132/226 340/1131/226 251/1130/226 252/1129/226
f 275/1155/230 363/1154/230 362/1153/230 325/1152/230 274/1151/230
f 298/1178/235 299/1177/235 303/1176/235
usemtl mat5
f 12/61/16 9/60/16 13/59/16 19/58/16
f 25/65/17 14/64/17 3/63/17 24/62/17
f 26/69/18 24/68/18 3/67/18 4/66/18
f 28/74/19 19/73/19 14/72/19 25/71/19 27/70/19
f 29/78/20 26/77/20 4/76/20 5/75/20
f 32/86/21 31/85/21 27/84/21 25/83/21 24/82/21 26/81/21 29/80/21 30/79/21
f 33/90/22 28/89/22 27/88/22 31/87/22
f 15/93/23 6/92/23 7/91/23
f 21/98/24 34/97/24 32/96/24 30/95/24 20/94/24
f 22/101/25 34/100/25 21/99/25
f 11/108/26 33/107/26 31/106/26 32/105/26 34/104/26 22/103/26 23/102/26
f 12/113/27 19/112/27 28/111/27 33/110/27 11/109/27
f 15/120/28 16/119/28 20/118/28 30/117/28 29/116/28 5/115/28 6/114/28
f 41/127/29 40/126/29 39/125/29 38/124/29 37/123/29 36/122/29 35/121/29
f 35/167/35 69/166/35 41/165/35
f 51/198/43 52/197/43 71/196/43 36/195/43 37/194/43
f 73/204/44 72/203/44 50/202/44 51/201/44 37/200/44 38/199/44
f 56/210/45 46/209/45 47/208/45 74/207/45 39/206/45 40/205/45
f 57/216/46 76/215/46 75/214/46 45/213/46 46/212/46 56/211/46
f 75/222/47 77/221/47 58/220/47 59/219/47 44/218/47 45/217/47
f 77/229/49 75/228/49 76/227/49
f 60/236/50 78/235/50 65/234/50 66/233/50 43/232/50 44/231/50 59/230/50
f 74/252/54 79/251/54 73/250/54 38/249/54 39/248/54
f 79/256/55 80/255/55 72/254/55 73/253/55
f 80/261/56 81/260/56 49/259/56 50/258/56 72/257/56
f 81/264/57 48/263/57 49/262/57
f 93/282/60 92/281/60 91/280/60 90/279/60
f 101/292/62 100/291/62 99/290/62 98/289/62 97/288/62 96/287/62 83/286/62
f 110/322/69 109/321/69 108/320/69 88/319/69 89/318/69 91/317/69
f 94/340/73 117/339/73 116/338/73 115/337/73 114/336/73 113/335/73 93/334/73 90/333/73
f 97/345/74 119/344/74 118/343/74 112/342/74 96/341/74
f 120/352/76 101/351/76 83/350/76 84/349/76
f 123/361/78 120/360/78 84/359/78 85/358/78
f 142/409/86 148/408/86 143/407/86 144/406/86 136/405/86 137/404/86
f 108/417/88 87/416/88 88/415/88
f 132/429/90 133/428/90 123/427/90 85/426/90 86/425/90
f 134/432/91 123/431/91 133/430/91
f 98/435/92 119/434/92 97/433/92
f 109/442/94 110/441/94 150/440/94
f 151/458/97 130/457/97 131/456/97 150/455/97 110/454/97 91/453/97 153/452/97 152/451/97
f 153/491/104 91/490/104 92/489/104
f 100/514/109 101/513/109 120/512/109 123/511/109 134/510/109 127/509/109
f 145/518/110 146/517/110 156/516/110 147/515/110
f 146/522/111 112/521/111 118/520/111 156/519/111
f 173/543/117 172/542/117 171/541/117 170/540/117
f 177/548/118 176/547/118 175/546/118 174/545/118 169/544/118
f 185/565/122 168/564/122 160/563/122 161/562/122 165/561/122
f 193/610/134 192/609/134 167/608/134 170/607/134
f 201/620/136 200/619/136 199/618/136 189/617/136 190/616/136
f 206/630/138 201/629/138 190/628/138 191/627/138
f 206/636/139 209/635/139 208/634/139 207/633/139 200/632/139 201/631/139
f 196/660/143 193/659/143 170/658/143 211/657/143 195/656/143
f 181/695/150 215/694/150 187/693/150 180/692/150
f 216/701/151 182/700/151 183/699/151 177/698/151 169/697/151 186/696/151
f 215/705/152 216/704/152 186/703/152 187/702/152
f 193/725/156 196/724/156 197/723/156 209/722/156 206/721/156 191/720/156 192/719/156
f 268/808/167 267/807/167 266/806/167 265/805/167 264/804/167 262/803/167 263/802/167 232/801/167 233/800/167
f 280/824/169 279/823/169 278/822/169 277/821/169 276/820/169 275/819/169 274/818/169 273/817/169 258/816/169 259/815/169
f 282/828/170 281/827/170 260/826/170 261/825/170
f 264/838/172 286/837/172 282/836/172 261/835/172 262/834/172
f 281/848/174 289/847/174 288/846/174 280/845/174 259/844/174 260/843/174
f 282/853/175 286/852/175 287/851/175 289/850/175 281/849/175
f 288/857/176 290/856/176 279/855/176 280/854/176
f 290/861/177 291/860/177 278/859/177 279/858/177
f 273/888/182 257/887/182 258/886/182
f 298/901/184 303/900/184 302/899/184 301/898/184 300/897/184 296/896/184 297/895/184
f 296/910/185 300/909/185 306/908/185 295/907/185 294/906/185 305/905/185 304/904/185 271/903/185 272/902/185
f 318/928/189 317/927/189 316/926/189 304/925/189 305/924/189
f 316/935/190 319/934/190 311/933/190 308/932/190 270/931/190 271/930/190 304/929/190
f 245/1056/211 218/1055/211 219/1054/211 351/1053/211 352/1052/211
f 244/1062/212 245/1061/212 352/1060/212 326/1059/212 327/1058/212 353/1057/212
f 243/1068/213 244/1067/213 353/1066/213 356/1065/213 355/1064/213 354/1063/213
f 242/1073/214 243/1072/214 354/1071/214 358/1070/214 357/1069/214
f 241/1082/216 242/1081/216 357/1080/216 348/1079/216 349/1078/216
f 240/1097/219 241/1096/219 349/1095/219 342/1094/219 343/1093/219
f 239/1101/220 240/1100/220 343/1099/220 344/1098/220
f 238/1117/223 239/1116/223 344/1115/223 345/1114/223 359/1113/223
f 336/1128/225 337/1127/225 359/1126/225 345/1125/225 346/1124/225 360/1123/225
f 338/1139/227 339/1138/227 360/1137/227 346/1136/227 347/1135/227 361/1134/227
f 340/1146/228 361/1145/228 347/1144/228 341/1143/228 350/1142/228 334/1141/228 335/1140/228
f 334/1150/229 350/1149/229 248/1148/229 249/1147/229
f 364/1161/231 276/1160/231 277/1159/231 293/1158/231 295/1157/231 306/1156/231
f 362/1167/232 363/1166/232 364/1165/232 306/1164/232 300/1163/232 301/1162/232
f 364/1171/233 363/1170/233 275/1169/233 276/1168/233
f 362/1175/234 301/1174/234 302/1173/234 325/1172/234
